STARTFONT 2.1
FONT -ibm-courier-medium-o-normal--8-80-100-100-m-59-iso8859-2
SIZE 8 100 100
FONTBOUNDINGBOX 9 12 0 -1
COMMENT $Header: courO08.bdf,v 1.1 96/01/22 23:46:54 peterlin Exp $
COMMENT 
COMMENT Copyright International Business Machines,Corp. 1991
COMMENT IBM Courier is a Trademark of the IBM Corporation.
COMMENT 
COMMENT Automatic rendering from Adobe Type 1 outline:
COMMENT Primoz Peterlin <primoz.peterlin@biofiz.mf.uni-lj.si>
COMMENT couri.pfa rendered at 9.000000 points
COMMENT Checksum eb69a063
STARTPROPERTIES 3
FONT_ASCENT 10
FONT_DESCENT 1
DEFAULT_CHAR 32
ENDPROPERTIES
CHARS 191
STARTCHAR space
ENCODING 32
SWIDTH 557 0
DWIDTH 7 0
BBX 0 0 0 1
BITMAP
ENDCHAR
STARTCHAR exclam
ENCODING 33
SWIDTH 557 0
DWIDTH 7 0
BBX 3 7 3 1
BITMAP
20
20
20
40
40
00
c0
ENDCHAR
STARTCHAR quotedbl
ENCODING 34
SWIDTH 557 0
DWIDTH 7 0
BBX 4 3 3 5
BITMAP
d0
a0
a0
ENDCHAR
STARTCHAR numbersign
ENCODING 35
SWIDTH 557 0
DWIDTH 7 0
BBX 6 9 1 0
BITMAP
24
24
28
7c
30
f8
50
50
90
ENDCHAR
STARTCHAR dollar
ENCODING 36
SWIDTH 557 0
DWIDTH 7 0
BBX 6 10 1 -1
BITMAP
08
1c
74
50
30
1c
94
f8
20
20
ENDCHAR
STARTCHAR percent
ENCODING 37
SWIDTH 557 0
DWIDTH 7 0
BBX 5 7 2 1
BITMAP
e0
a0
d8
e0
b8
48
70
ENDCHAR
STARTCHAR ampersand
ENCODING 38
SWIDTH 557 0
DWIDTH 7 0
BBX 6 7 1 1
BITMAP
18
24
20
24
d8
90
68
ENDCHAR
STARTCHAR quoteright
ENCODING 39
SWIDTH 557 0
DWIDTH 7 0
BBX 3 3 3 5
BITMAP
60
40
80
ENDCHAR
STARTCHAR parenleft
ENCODING 40
SWIDTH 557 0
DWIDTH 7 0
BBX 3 9 4 0
BITMAP
20
40
40
80
80
80
80
80
80
ENDCHAR
STARTCHAR parenright
ENCODING 41
SWIDTH 557 0
DWIDTH 7 0
BBX 4 9 1 0
BITMAP
30
10
10
10
10
10
20
40
40
ENDCHAR
STARTCHAR asterisk
ENCODING 42
SWIDTH 557 0
DWIDTH 7 0
BBX 5 4 2 4
BITMAP
20
78
20
50
ENDCHAR
STARTCHAR plus
ENCODING 43
SWIDTH 557 0
DWIDTH 7 0
BBX 5 5 2 2
BITMAP
20
20
f8
20
20
ENDCHAR
STARTCHAR comma
ENCODING 44
SWIDTH 557 0
DWIDTH 7 0
BBX 3 3 2 0
BITMAP
60
40
80
ENDCHAR
STARTCHAR minus
ENCODING 45
SWIDTH 557 0
DWIDTH 7 0
BBX 6 1 1 4
BITMAP
fc
ENDCHAR
STARTCHAR period
ENCODING 46
SWIDTH 557 0
DWIDTH 7 0
BBX 2 2 3 1
BITMAP
c0
40
ENDCHAR
STARTCHAR slash
ENCODING 47
SWIDTH 557 0
DWIDTH 7 0
BBX 7 10 1 -1
BITMAP
02
04
04
08
10
10
20
40
40
80
ENDCHAR
STARTCHAR zero
ENCODING 48
SWIDTH 557 0
DWIDTH 7 0
BBX 5 7 2 1
BITMAP
38
48
88
88
90
90
e0
ENDCHAR
STARTCHAR one
ENCODING 49
SWIDTH 557 0
DWIDTH 7 0
BBX 5 7 1 1
BITMAP
30
10
10
10
10
20
f8
ENDCHAR
STARTCHAR two
ENCODING 50
SWIDTH 557 0
DWIDTH 7 0
BBX 6 7 1 1
BITMAP
3c
04
04
08
30
48
f8
ENDCHAR
STARTCHAR three
ENCODING 51
SWIDTH 557 0
DWIDTH 7 0
BBX 6 7 1 1
BITMAP
3c
08
08
18
08
08
f0
ENDCHAR
STARTCHAR four
ENCODING 52
SWIDTH 557 0
DWIDTH 7 0
BBX 5 7 1 1
BITMAP
18
38
68
50
f8
10
78
ENDCHAR
STARTCHAR five
ENCODING 53
SWIDTH 557 0
DWIDTH 7 0
BBX 6 7 1 1
BITMAP
3c
20
78
24
04
08
70
ENDCHAR
STARTCHAR six
ENCODING 54
SWIDTH 557 0
DWIDTH 7 0
BBX 5 7 2 1
BITMAP
38
40
60
90
90
90
e0
ENDCHAR
STARTCHAR seven
ENCODING 55
SWIDTH 557 0
DWIDTH 7 0
BBX 5 7 2 1
BITMAP
f8
10
10
20
20
40
40
ENDCHAR
STARTCHAR eight
ENCODING 56
SWIDTH 557 0
DWIDTH 7 0
BBX 6 7 1 1
BITMAP
3c
44
48
38
44
8c
70
ENDCHAR
STARTCHAR nine
ENCODING 57
SWIDTH 557 0
DWIDTH 7 0
BBX 6 7 1 1
BITMAP
3c
44
44
3c
04
08
f0
ENDCHAR
STARTCHAR colon
ENCODING 58
SWIDTH 557 0
DWIDTH 7 0
BBX 2 5 3 1
BITMAP
c0
40
00
c0
40
ENDCHAR
STARTCHAR semicolon
ENCODING 59
SWIDTH 557 0
DWIDTH 7 0
BBX 3 6 2 0
BITMAP
60
20
00
40
40
80
ENDCHAR
STARTCHAR less
ENCODING 60
SWIDTH 557 0
DWIDTH 7 0
BBX 6 5 1 2
BITMAP
18
20
e0
18
04
ENDCHAR
STARTCHAR equal
ENCODING 61
SWIDTH 557 0
DWIDTH 7 0
BBX 6 3 1 3
BITMAP
fc
00
fc
ENDCHAR
STARTCHAR greater
ENCODING 62
SWIDTH 557 0
DWIDTH 7 0
BBX 6 5 2 2
BITMAP
60
10
1c
e0
80
ENDCHAR
STARTCHAR question
ENCODING 63
SWIDTH 557 0
DWIDTH 7 0
BBX 5 7 2 1
BITMAP
f0
88
08
30
40
00
c0
ENDCHAR
STARTCHAR at
ENCODING 64
SWIDTH 557 0
DWIDTH 7 0
BBX 7 7 1 1
BITMAP
3c
44
5a
aa
d6
ec
78
ENDCHAR
STARTCHAR A
ENCODING 65
SWIDTH 557 0
DWIDTH 7 0
BBX 7 7 0 1
BITMAP
18
14
14
24
3c
42
c6
ENDCHAR
STARTCHAR B
ENCODING 66
SWIDTH 557 0
DWIDTH 7 0
BBX 6 7 1 1
BITMAP
78
44
44
78
44
44
f8
ENDCHAR
STARTCHAR C
ENCODING 67
SWIDTH 557 0
DWIDTH 7 0
BBX 8 7 1 1
BITMAP
1d
62
42
80
80
80
78
ENDCHAR
STARTCHAR D
ENCODING 68
SWIDTH 557 0
DWIDTH 7 0
BBX 8 7 0 1
BITMAP
3e
21
21
21
22
26
f8
ENDCHAR
STARTCHAR E
ENCODING 69
SWIDTH 557 0
DWIDTH 7 0
BBX 7 7 1 1
BITMAP
7e
22
28
38
48
44
fc
ENDCHAR
STARTCHAR F
ENCODING 70
SWIDTH 557 0
DWIDTH 7 0
BBX 7 7 1 1
BITMAP
7e
22
28
38
48
40
e0
ENDCHAR
STARTCHAR G
ENCODING 71
SWIDTH 557 0
DWIDTH 7 0
BBX 8 7 1 1
BITMAP
1d
62
42
80
9e
84
78
ENDCHAR
STARTCHAR H
ENCODING 72
SWIDTH 557 0
DWIDTH 7 0
BBX 8 7 0 1
BITMAP
77
22
22
3c
44
44
ee
ENDCHAR
STARTCHAR I
ENCODING 73
SWIDTH 557 0
DWIDTH 7 0
BBX 6 7 1 1
BITMAP
7c
10
10
10
10
20
f8
ENDCHAR
STARTCHAR J
ENCODING 74
SWIDTH 557 0
DWIDTH 7 0
BBX 7 7 1 1
BITMAP
1e
04
04
04
88
88
f0
ENDCHAR
STARTCHAR K
ENCODING 75
SWIDTH 557 0
DWIDTH 7 0
BBX 7 7 1 1
BITMAP
76
2c
28
30
48
48
c4
ENDCHAR
STARTCHAR L
ENCODING 76
SWIDTH 557 0
DWIDTH 7 0
BBX 7 7 0 1
BITMAP
78
20
20
20
22
42
fc
ENDCHAR
STARTCHAR M
ENCODING 77
SWIDTH 557 0
DWIDTH 7 0
BBX 8 7 0 1
BITMAP
63
36
36
3a
4a
42
ce
ENDCHAR
STARTCHAR N
ENCODING 78
SWIDTH 557 0
DWIDTH 7 0
BBX 8 7 0 1
BITMAP
67
32
32
2a
4a
4a
e4
ENDCHAR
STARTCHAR O
ENCODING 79
SWIDTH 557 0
DWIDTH 7 0
BBX 7 7 1 1
BITMAP
3c
46
42
82
84
8c
70
ENDCHAR
STARTCHAR P
ENCODING 80
SWIDTH 557 0
DWIDTH 7 0
BBX 7 7 1 1
BITMAP
7c
22
22
24
38
40
f0
ENDCHAR
STARTCHAR Q
ENCODING 81
SWIDTH 557 0
DWIDTH 7 0
BBX 7 9 1 -1
BITMAP
3c
46
42
82
84
8c
70
60
f8
ENDCHAR
STARTCHAR R
ENCODING 82
SWIDTH 557 0
DWIDTH 7 0
BBX 6 7 1 1
BITMAP
7c
44
4c
70
50
48
cc
ENDCHAR
STARTCHAR S
ENCODING 83
SWIDTH 557 0
DWIDTH 7 0
BBX 7 7 1 1
BITMAP
3e
44
40
38
04
84
f8
ENDCHAR
STARTCHAR T
ENCODING 84
SWIDTH 557 0
DWIDTH 7 0
BBX 6 7 2 1
BITMAP
7c
94
94
10
20
20
f0
ENDCHAR
STARTCHAR U
ENCODING 85
SWIDTH 557 0
DWIDTH 7 0
BBX 7 7 1 1
BITMAP
e6
44
44
c4
84
84
78
ENDCHAR
STARTCHAR V
ENCODING 86
SWIDTH 557 0
DWIDTH 7 0
BBX 7 7 1 1
BITMAP
ee
44
44
48
50
50
20
ENDCHAR
STARTCHAR W
ENCODING 87
SWIDTH 557 0
DWIDTH 7 0
BBX 7 7 1 1
BITMAP
c6
94
94
b4
d4
d8
88
ENDCHAR
STARTCHAR X
ENCODING 88
SWIDTH 557 0
DWIDTH 7 0
BBX 8 7 0 1
BITMAP
37
32
14
08
38
44
ee
ENDCHAR
STARTCHAR Y
ENCODING 89
SWIDTH 557 0
DWIDTH 7 0
BBX 7 7 1 1
BITMAP
ee
44
48
30
20
20
f0
ENDCHAR
STARTCHAR Z
ENCODING 90
SWIDTH 557 0
DWIDTH 7 0
BBX 6 7 1 1
BITMAP
7c
48
50
20
44
44
f8
ENDCHAR
STARTCHAR bracketleft
ENCODING 91
SWIDTH 557 0
DWIDTH 7 0
BBX 4 9 3 0
BITMAP
30
20
40
40
40
40
80
80
c0
ENDCHAR
STARTCHAR backslash
ENCODING 92
SWIDTH 557 0
DWIDTH 7 0
BBX 3 10 3 -1
BITMAP
80
80
80
40
40
40
40
20
20
20
ENDCHAR
STARTCHAR bracketright
ENCODING 93
SWIDTH 557 0
DWIDTH 7 0
BBX 4 9 1 0
BITMAP
30
10
10
10
20
20
20
40
c0
ENDCHAR
STARTCHAR asciicircum
ENCODING 94
SWIDTH 557 0
DWIDTH 7 0
BBX 5 6 2 2
BITMAP
20
50
50
50
88
88
ENDCHAR
STARTCHAR underscore
ENCODING 95
SWIDTH 557 0
DWIDTH 7 0
BBX 8 1 0 -1
BITMAP
ff
ENDCHAR
STARTCHAR quoteleft
ENCODING 96
SWIDTH 557 0
DWIDTH 7 0
BBX 3 3 3 5
BITMAP
20
40
c0
ENDCHAR
STARTCHAR a
ENCODING 97
SWIDTH 557 0
DWIDTH 7 0
BBX 6 5 1 1
BITMAP
7c
7c
88
88
fc
ENDCHAR
STARTCHAR b
ENCODING 98
SWIDTH 557 0
DWIDTH 7 0
BBX 7 7 0 1
BITMAP
20
20
3c
22
22
44
f8
ENDCHAR
STARTCHAR c
ENCODING 99
SWIDTH 557 0
DWIDTH 7 0
BBX 6 5 1 1
BITMAP
3c
44
80
80
78
ENDCHAR
STARTCHAR d
ENCODING 100
SWIDTH 557 0
DWIDTH 7 0
BBX 7 7 1 1
BITMAP
0c
04
3c
44
84
88
7c
ENDCHAR
STARTCHAR e
ENCODING 101
SWIDTH 557 0
DWIDTH 7 0
BBX 6 5 1 1
BITMAP
3c
44
fc
80
78
ENDCHAR
STARTCHAR f
ENCODING 102
SWIDTH 557 0
DWIDTH 7 0
BBX 7 7 1 1
BITMAP
1e
20
78
20
20
20
f0
ENDCHAR
STARTCHAR g
ENCODING 103
SWIDTH 557 0
DWIDTH 7 0
BBX 7 7 1 -1
BITMAP
3e
c8
88
98
68
10
70
ENDCHAR
STARTCHAR h
ENCODING 104
SWIDTH 557 0
DWIDTH 7 0
BBX 7 7 0 1
BITMAP
30
20
3e
22
22
22
ee
ENDCHAR
STARTCHAR i
ENCODING 105
SWIDTH 557 0
DWIDTH 7 0
BBX 5 8 1 1
BITMAP
10
00
00
70
10
10
20
f8
ENDCHAR
STARTCHAR j
ENCODING 106
SWIDTH 557 0
DWIDTH 7 0
BBX 6 10 0 -1
BITMAP
04
00
00
3c
08
08
08
08
10
e0
ENDCHAR
STARTCHAR k
ENCODING 107
SWIDTH 557 0
DWIDTH 7 0
BBX 7 7 1 1
BITMAP
20
20
2e
38
30
48
cc
ENDCHAR
STARTCHAR l
ENCODING 108
SWIDTH 557 0
DWIDTH 7 0
BBX 5 7 1 1
BITMAP
30
10
10
10
10
20
f8
ENDCHAR
STARTCHAR m
ENCODING 109
SWIDTH 557 0
DWIDTH 7 0
BBX 8 5 0 1
BITMAP
7f
49
4a
4a
da
ENDCHAR
STARTCHAR n
ENCODING 110
SWIDTH 557 0
DWIDTH 7 0
BBX 7 5 0 1
BITMAP
7e
22
22
24
ee
ENDCHAR
STARTCHAR o
ENCODING 111
SWIDTH 557 0
DWIDTH 7 0
BBX 6 5 1 1
BITMAP
3c
44
84
88
70
ENDCHAR
STARTCHAR p
ENCODING 112
SWIDTH 557 0
DWIDTH 7 0
BBX 7 7 0 -1
BITMAP
7e
22
22
24
78
40
e0
ENDCHAR
STARTCHAR q
ENCODING 113
SWIDTH 557 0
DWIDTH 7 0
BBX 7 7 1 -1
BITMAP
3e
44
84
88
78
08
3c
ENDCHAR
STARTCHAR r
ENCODING 114
SWIDTH 557 0
DWIDTH 7 0
BBX 7 5 1 1
BITMAP
6e
30
20
20
f8
ENDCHAR
STARTCHAR s
ENCODING 115
SWIDTH 557 0
DWIDTH 7 0
BBX 6 5 1 1
BITMAP
3c
40
38
84
f8
ENDCHAR
STARTCHAR t
ENCODING 116
SWIDTH 557 0
DWIDTH 7 0
BBX 5 7 2 1
BITMAP
40
40
f0
40
80
80
f8
ENDCHAR
STARTCHAR u
ENCODING 117
SWIDTH 557 0
DWIDTH 7 0
BBX 6 5 1 1
BITMAP
cc
44
c4
88
7c
ENDCHAR
STARTCHAR v
ENCODING 118
SWIDTH 557 0
DWIDTH 7 0
BBX 7 5 1 1
BITMAP
ee
44
48
50
20
ENDCHAR
STARTCHAR w
ENCODING 119
SWIDTH 557 0
DWIDTH 7 0
BBX 7 5 1 1
BITMAP
c6
54
74
7c
48
ENDCHAR
STARTCHAR x
ENCODING 120
SWIDTH 557 0
DWIDTH 7 0
BBX 7 5 0 1
BITMAP
66
28
10
68
cc
ENDCHAR
STARTCHAR y
ENCODING 121
SWIDTH 557 0
DWIDTH 7 0
BBX 7 7 1 -1
BITMAP
ee
44
44
48
78
08
70
ENDCHAR
STARTCHAR z
ENCODING 122
SWIDTH 557 0
DWIDTH 7 0
BBX 6 5 1 1
BITMAP
7c
18
20
44
f8
ENDCHAR
STARTCHAR braceleft
ENCODING 123
SWIDTH 557 0
DWIDTH 7 0
BBX 4 9 3 0
BITMAP
30
20
20
20
c0
40
c0
80
e0
ENDCHAR
STARTCHAR bar
ENCODING 124
SWIDTH 557 0
DWIDTH 7 0
BBX 1 10 4 -1
BITMAP
80
80
80
80
80
80
80
80
80
80
ENDCHAR
STARTCHAR braceright
ENCODING 125
SWIDTH 557 0
DWIDTH 7 0
BBX 4 9 1 0
BITMAP
30
10
10
20
30
20
20
20
c0
ENDCHAR
STARTCHAR asciitilde
ENCODING 126
SWIDTH 557 0
DWIDTH 7 0
BBX 5 2 2 4
BITMAP
68
90
ENDCHAR
STARTCHAR space
ENCODING 160
SWIDTH 557 0
DWIDTH 7 0
BBX 0 0 0 1
BITMAP
ENDCHAR
STARTCHAR Aogonek
ENCODING 161
SWIDTH 557 0
DWIDTH 7 0
BBX 7 9 0 -1
BITMAP
1c
0c
14
14
3c
42
e6
06
04
ENDCHAR
STARTCHAR breve
ENCODING 162
SWIDTH 557 0
DWIDTH 7 0
BBX 4 1 3 7
BITMAP
f0
ENDCHAR
STARTCHAR Lslash
ENCODING 163
SWIDTH 557 0
DWIDTH 7 0
BBX 7 7 0 1
BITMAP
78
20
28
72
62
22
fc
ENDCHAR
STARTCHAR currency
ENCODING 164
SWIDTH 557 0
DWIDTH 7 0
BBX 5 5 2 2
BITMAP
f8
88
88
88
f8
ENDCHAR
STARTCHAR Lcaron
ENCODING 165
SWIDTH 557 0
DWIDTH 7 0
BBX 8 7 0 1
BITMAP
7a
20
20
20
22
42
fc
ENDCHAR
STARTCHAR Sacute
ENCODING 166
SWIDTH 557 0
DWIDTH 7 0
BBX 7 9 1 1
BITMAP
08
00
3e
44
40
38
04
84
f8
ENDCHAR
STARTCHAR section
ENCODING 167
SWIDTH 557 0
DWIDTH 7 0
BBX 7 8 1 0
BITMAP
1c
22
30
48
24
38
50
f0
ENDCHAR
STARTCHAR dieresis
ENCODING 168
SWIDTH 557 0
DWIDTH 7 0
BBX 2 1 4 7
BITMAP
c0
ENDCHAR
STARTCHAR Scaron
ENCODING 169
SWIDTH 557 0
DWIDTH 7 0
BBX 7 9 1 1
BITMAP
14
08
3e
44
40
38
04
84
f8
ENDCHAR
STARTCHAR Scedilla
ENCODING 170
SWIDTH 557 0
DWIDTH 7 0
BBX 7 9 1 -1
BITMAP
3c
44
40
38
04
84
f8
20
70
ENDCHAR
STARTCHAR Tcaron
ENCODING 171
SWIDTH 557 0
DWIDTH 7 0
BBX 6 9 2 1
BITMAP
28
10
7c
94
94
10
20
20
f0
ENDCHAR
STARTCHAR Zacute
ENCODING 172
SWIDTH 557 0
DWIDTH 7 0
BBX 6 9 1 1
BITMAP
08
00
7c
48
50
20
44
44
f8
ENDCHAR
STARTCHAR hyphen
ENCODING 173
SWIDTH 557 0
DWIDTH 7 0
BBX 3 1 3 4
BITMAP
e0
ENDCHAR
STARTCHAR Zcaron
ENCODING 174
SWIDTH 557 0
DWIDTH 7 0
BBX 6 9 1 1
BITMAP
14
08
7c
48
50
20
44
44
f8
ENDCHAR
STARTCHAR Zdotaccent
ENCODING 175
SWIDTH 557 0
DWIDTH 7 0
BBX 6 9 1 1
BITMAP
08
00
7c
48
50
20
44
44
f8
ENDCHAR
STARTCHAR degree
ENCODING 176
SWIDTH 557 0
DWIDTH 7 0
BBX 4 3 2 5
BITMAP
70
90
70
ENDCHAR
STARTCHAR aogonek
ENCODING 177
SWIDTH 557 0
DWIDTH 7 0
BBX 6 7 1 -1
BITMAP
7c
7c
88
88
fc
14
18
ENDCHAR
STARTCHAR ogonek
ENCODING 178
SWIDTH 557 0
DWIDTH 7 0
BBX 2 2 3 -1
BITMAP
c0
80
ENDCHAR
STARTCHAR lslash
ENCODING 179
SWIDTH 557 0
DWIDTH 7 0
BBX 6 7 1 1
BITMAP
38
10
1c
70
50
20
f8
ENDCHAR
STARTCHAR acute
ENCODING 180
SWIDTH 557 0
DWIDTH 7 0
BBX 3 1 4 7
BITMAP
40
ENDCHAR
STARTCHAR lcaron
ENCODING 181
SWIDTH 557 0
DWIDTH 7 0
BBX 7 7 1 1
BITMAP
34
10
10
10
10
20
f8
ENDCHAR
STARTCHAR sacute
ENCODING 182
SWIDTH 557 0
DWIDTH 7 0
BBX 6 7 1 1
BITMAP
08
00
3c
40
38
84
f8
ENDCHAR
STARTCHAR caron
ENCODING 183
SWIDTH 557 0
DWIDTH 7 0
BBX 3 1 4 7
BITMAP
c0
ENDCHAR
STARTCHAR cedilla
ENCODING 184
SWIDTH 557 0
DWIDTH 7 0
BBX 3 3 2 -1
BITMAP
40
40
e0
ENDCHAR
STARTCHAR scaron
ENCODING 185
SWIDTH 557 0
DWIDTH 7 0
BBX 6 7 1 1
BITMAP
18
00
3c
40
38
84
f8
ENDCHAR
STARTCHAR scedilla
ENCODING 186
SWIDTH 557 0
DWIDTH 7 0
BBX 6 7 1 -1
BITMAP
3c
40
38
84
f8
30
70
ENDCHAR
STARTCHAR tcaron
ENCODING 187
SWIDTH 557 0
DWIDTH 7 0
BBX 5 7 2 1
BITMAP
50
40
f0
40
80
80
f8
ENDCHAR
STARTCHAR zacute
ENCODING 188
SWIDTH 557 0
DWIDTH 7 0
BBX 6 7 1 1
BITMAP
08
00
7c
18
20
44
f8
ENDCHAR
STARTCHAR hungarumlaut
ENCODING 189
SWIDTH 557 0
DWIDTH 7 0
BBX 4 1 3 7
BITMAP
60
ENDCHAR
STARTCHAR zcaron
ENCODING 190
SWIDTH 557 0
DWIDTH 7 0
BBX 6 7 1 1
BITMAP
18
00
7c
18
20
44
f8
ENDCHAR
STARTCHAR zdotaccent
ENCODING 191
SWIDTH 557 0
DWIDTH 7 0
BBX 6 7 1 1
BITMAP
08
00
7c
18
20
44
f8
ENDCHAR
STARTCHAR Racute
ENCODING 192
SWIDTH 557 0
DWIDTH 7 0
BBX 6 9 1 1
BITMAP
08
00
7c
44
4c
70
50
48
cc
ENDCHAR
STARTCHAR Aacute
ENCODING 193
SWIDTH 557 0
DWIDTH 7 0
BBX 7 9 0 1
BITMAP
04
00
18
14
14
24
3c
42
c6
ENDCHAR
STARTCHAR Acircumflex
ENCODING 194
SWIDTH 557 0
DWIDTH 7 0
BBX 7 9 0 1
BITMAP
06
00
18
14
14
24
3c
42
c6
ENDCHAR
STARTCHAR Abreve
ENCODING 195
SWIDTH 557 0
DWIDTH 7 0
BBX 7 9 0 1
BITMAP
12
0c
18
14
14
24
3c
42
c6
ENDCHAR
STARTCHAR Adieresis
ENCODING 196
SWIDTH 557 0
DWIDTH 7 0
BBX 7 9 0 1
BITMAP
0c
00
18
14
14
24
3c
42
c6
ENDCHAR
STARTCHAR Lacute
ENCODING 197
SWIDTH 557 0
DWIDTH 7 0
BBX 7 9 0 1
BITMAP
08
00
78
20
20
20
22
42
fc
ENDCHAR
STARTCHAR Cacute
ENCODING 198
SWIDTH 557 0
DWIDTH 7 0
BBX 8 9 1 1
BITMAP
08
00
1d
62
42
80
80
80
78
ENDCHAR
STARTCHAR Ccedilla
ENCODING 199
SWIDTH 557 0
DWIDTH 7 0
BBX 7 9 1 -1
BITMAP
1e
62
42
80
80
80
78
10
30
ENDCHAR
STARTCHAR Ccaron
ENCODING 200
SWIDTH 557 0
DWIDTH 7 0
BBX 8 9 1 1
BITMAP
14
08
1d
62
42
80
80
80
78
ENDCHAR
STARTCHAR Eacute
ENCODING 201
SWIDTH 557 0
DWIDTH 7 0
BBX 7 9 1 1
BITMAP
08
00
7e
22
28
38
48
44
fc
ENDCHAR
STARTCHAR Eogonek
ENCODING 202
SWIDTH 557 0
DWIDTH 7 0
BBX 7 9 1 -1
BITMAP
7e
22
28
78
48
44
fc
14
18
ENDCHAR
STARTCHAR Edieresis
ENCODING 203
SWIDTH 557 0
DWIDTH 7 0
BBX 7 9 1 1
BITMAP
14
00
7e
22
28
38
48
44
fc
ENDCHAR
STARTCHAR Ecaron
ENCODING 204
SWIDTH 557 0
DWIDTH 7 0
BBX 7 9 1 1
BITMAP
14
08
7e
22
28
38
48
44
fc
ENDCHAR
STARTCHAR Iacute
ENCODING 205
SWIDTH 557 0
DWIDTH 7 0
BBX 6 9 1 1
BITMAP
08
00
7c
10
10
10
10
20
f8
ENDCHAR
STARTCHAR Icircumflex
ENCODING 206
SWIDTH 557 0
DWIDTH 7 0
BBX 6 9 1 1
BITMAP
0c
00
7c
10
10
10
10
20
f8
ENDCHAR
STARTCHAR Dcaron
ENCODING 207
SWIDTH 557 0
DWIDTH 7 0
BBX 8 9 0 1
BITMAP
0a
04
3e
21
21
21
22
26
f8
ENDCHAR
STARTCHAR Eth
ENCODING 208
SWIDTH 557 0
DWIDTH 7 0
BBX 8 7 0 1
BITMAP
3e
21
21
79
22
26
f8
ENDCHAR
STARTCHAR Nacute
ENCODING 209
SWIDTH 557 0
DWIDTH 7 0
BBX 8 9 0 1
BITMAP
04
00
67
32
32
2a
4a
4a
e4
ENDCHAR
STARTCHAR Ncaron
ENCODING 210
SWIDTH 557 0
DWIDTH 7 0
BBX 8 9 0 1
BITMAP
0a
04
67
32
32
2a
4a
4a
e4
ENDCHAR
STARTCHAR Oacute
ENCODING 211
SWIDTH 557 0
DWIDTH 7 0
BBX 7 9 1 1
BITMAP
08
00
3c
46
42
82
84
8c
70
ENDCHAR
STARTCHAR Ocircumflex
ENCODING 212
SWIDTH 557 0
DWIDTH 7 0
BBX 7 9 1 1
BITMAP
0c
00
3c
46
42
82
84
8c
70
ENDCHAR
STARTCHAR Ohungarumlaut
ENCODING 213
SWIDTH 557 0
DWIDTH 7 0
BBX 7 9 1 1
BITMAP
0c
00
3c
46
42
82
84
8c
70
ENDCHAR
STARTCHAR Odieresis
ENCODING 214
SWIDTH 557 0
DWIDTH 7 0
BBX 7 9 1 1
BITMAP
14
00
3c
46
42
82
84
8c
70
ENDCHAR
STARTCHAR multiply
ENCODING 215
SWIDTH 557 0
DWIDTH 7 0
BBX 4 5 2 2
BITMAP
90
70
20
d0
90
ENDCHAR
STARTCHAR Rcaron
ENCODING 216
SWIDTH 557 0
DWIDTH 7 0
BBX 6 9 1 1
BITMAP
14
08
7c
44
4c
70
50
48
cc
ENDCHAR
STARTCHAR Uring
ENCODING 217
SWIDTH 557 0
DWIDTH 7 0
BBX 7 10 1 1
BITMAP
08
14
0c
e6
44
44
c4
84
84
78
ENDCHAR
STARTCHAR Uacute
ENCODING 218
SWIDTH 557 0
DWIDTH 7 0
BBX 7 9 1 1
BITMAP
08
00
e6
44
44
c4
84
84
78
ENDCHAR
STARTCHAR Uhungarumlaut
ENCODING 219
SWIDTH 557 0
DWIDTH 7 0
BBX 7 9 1 1
BITMAP
0c
00
e6
44
44
c4
84
84
78
ENDCHAR
STARTCHAR Udieresis
ENCODING 220
SWIDTH 557 0
DWIDTH 7 0
BBX 7 9 1 1
BITMAP
14
00
e6
44
44
c4
84
84
78
ENDCHAR
STARTCHAR Yacute
ENCODING 221
SWIDTH 557 0
DWIDTH 7 0
BBX 7 9 1 1
BITMAP
08
00
ee
44
48
30
20
20
f0
ENDCHAR
STARTCHAR Tcedilla
ENCODING 222
SWIDTH 557 0
DWIDTH 7 0
BBX 7 9 1 -1
BITMAP
7e
92
92
10
10
10
70
30
70
ENDCHAR
STARTCHAR germandbls
ENCODING 223
SWIDTH 557 0
DWIDTH 7 0
BBX 6 8 1 1
BITMAP
18
24
24
58
48
44
44
b8
ENDCHAR
STARTCHAR racute
ENCODING 224
SWIDTH 557 0
DWIDTH 7 0
BBX 7 7 1 1
BITMAP
08
00
6e
30
20
20
f8
ENDCHAR
STARTCHAR aacute
ENCODING 225
SWIDTH 557 0
DWIDTH 7 0
BBX 6 7 1 1
BITMAP
08
00
7c
7c
88
88
fc
ENDCHAR
STARTCHAR acircumflex
ENCODING 226
SWIDTH 557 0
DWIDTH 7 0
BBX 6 7 1 1
BITMAP
1c
00
7c
7c
88
88
fc
ENDCHAR
STARTCHAR abreve
ENCODING 227
SWIDTH 557 0
DWIDTH 7 0
BBX 6 7 1 1
BITMAP
3c
00
7c
7c
88
88
fc
ENDCHAR
STARTCHAR adieresis
ENCODING 228
SWIDTH 557 0
DWIDTH 7 0
BBX 6 7 1 1
BITMAP
18
00
7c
7c
88
88
fc
ENDCHAR
STARTCHAR lacute
ENCODING 229
SWIDTH 557 0
DWIDTH 7 0
BBX 6 9 1 1
BITMAP
08
00
30
10
10
10
10
20
f8
ENDCHAR
STARTCHAR cacute
ENCODING 230
SWIDTH 557 0
DWIDTH 7 0
BBX 6 7 1 1
BITMAP
08
00
3c
44
80
80
78
ENDCHAR
STARTCHAR ccedilla
ENCODING 231
SWIDTH 557 0
DWIDTH 7 0
BBX 6 7 1 -1
BITMAP
3c
44
80
80
78
30
70
ENDCHAR
STARTCHAR ccaron
ENCODING 232
SWIDTH 557 0
DWIDTH 7 0
BBX 6 7 1 1
BITMAP
18
00
3c
44
80
80
78
ENDCHAR
STARTCHAR eacute
ENCODING 233
SWIDTH 557 0
DWIDTH 7 0
BBX 6 7 1 1
BITMAP
08
00
3c
44
fc
80
78
ENDCHAR
STARTCHAR eogonek
ENCODING 234
SWIDTH 557 0
DWIDTH 7 0
BBX 6 7 1 -1
BITMAP
3c
44
fc
80
78
28
30
ENDCHAR
STARTCHAR edieresis
ENCODING 235
SWIDTH 557 0
DWIDTH 7 0
BBX 6 7 1 1
BITMAP
18
00
3c
44
fc
80
78
ENDCHAR
STARTCHAR ecaron
ENCODING 236
SWIDTH 557 0
DWIDTH 7 0
BBX 6 7 1 1
BITMAP
18
00
3c
44
fc
80
78
ENDCHAR
STARTCHAR iacute
ENCODING 237
SWIDTH 557 0
DWIDTH 7 0
BBX 6 7 1 1
BITMAP
08
00
70
10
10
20
f8
ENDCHAR
STARTCHAR icircumflex
ENCODING 238
SWIDTH 557 0
DWIDTH 7 0
BBX 5 7 1 1
BITMAP
38
00
70
10
10
20
f8
ENDCHAR
STARTCHAR dcaron
ENCODING 239
SWIDTH 557 0
DWIDTH 7 0
BBX 9 7 1 1
BITMAP
0d00
0400
3c00
4400
8400
8800
7c00
ENDCHAR
STARTCHAR dbar
ENCODING 240
SWIDTH 557 0
DWIDTH 7 0
BBX 7 7 1 1
BITMAP
1e
1e
3c
44
84
88
7c
ENDCHAR
STARTCHAR nacute
ENCODING 241
SWIDTH 557 0
DWIDTH 7 0
BBX 7 7 0 1
BITMAP
04
00
7e
22
22
24
ee
ENDCHAR
STARTCHAR ncaron
ENCODING 242
SWIDTH 557 0
DWIDTH 7 0
BBX 7 7 0 1
BITMAP
0c
00
7e
22
22
24
ee
ENDCHAR
STARTCHAR oacute
ENCODING 243
SWIDTH 557 0
DWIDTH 7 0
BBX 6 7 1 1
BITMAP
08
00
3c
44
84
88
70
ENDCHAR
STARTCHAR ocircumflex
ENCODING 244
SWIDTH 557 0
DWIDTH 7 0
BBX 6 7 1 1
BITMAP
1c
00
3c
44
84
88
70
ENDCHAR
STARTCHAR ohungarumlaut
ENCODING 245
SWIDTH 557 0
DWIDTH 7 0
BBX 6 7 1 1
BITMAP
18
00
3c
44
84
88
70
ENDCHAR
STARTCHAR odieresis
ENCODING 246
SWIDTH 557 0
DWIDTH 7 0
BBX 6 7 1 1
BITMAP
18
00
3c
44
84
88
70
ENDCHAR
STARTCHAR divide
ENCODING 247
SWIDTH 557 0
DWIDTH 7 0
BBX 5 5 2 2
BITMAP
20
00
f8
00
20
ENDCHAR
STARTCHAR rcaron
ENCODING 248
SWIDTH 557 0
DWIDTH 7 0
BBX 7 7 1 1
BITMAP
18
00
6e
30
20
20
f8
ENDCHAR
STARTCHAR uring
ENCODING 249
SWIDTH 557 0
DWIDTH 7 0
BBX 6 8 1 1
BITMAP
18
38
00
cc
44
c4
88
7c
ENDCHAR
STARTCHAR uacute
ENCODING 250
SWIDTH 557 0
DWIDTH 7 0
BBX 6 7 1 1
BITMAP
08
00
cc
44
c4
88
7c
ENDCHAR
STARTCHAR uhungarumlaut
ENCODING 251
SWIDTH 557 0
DWIDTH 7 0
BBX 6 7 1 1
BITMAP
18
00
cc
44
c4
88
7c
ENDCHAR
STARTCHAR udieresis
ENCODING 252
SWIDTH 557 0
DWIDTH 7 0
BBX 6 7 1 1
BITMAP
18
00
cc
44
c4
88
7c
ENDCHAR
STARTCHAR yacute
ENCODING 253
SWIDTH 557 0
DWIDTH 7 0
BBX 7 9 1 -1
BITMAP
08
00
ee
44
44
48
78
08
70
ENDCHAR
STARTCHAR tcedilla
ENCODING 254
SWIDTH 557 0
DWIDTH 7 0
BBX 5 9 2 -1
BITMAP
40
40
f0
40
80
80
f8
20
e0
ENDCHAR
STARTCHAR dotaccent
ENCODING 255
SWIDTH 557 0
DWIDTH 7 0
BBX 1 1 5 7
BITMAP
80
ENDCHAR
ENDFONT
